<svg xmlns="http://www.w3.org/2000/svg" viewBox="0 0 173.864 30"><defs><style>.a{fill:#fff;}</style></defs><g transform="translate(0 0.002)"><g transform="translate(0 -0.002)"><path class="a" d="M3.025,6.917V18.738H0V0L12.651,12.028V.207h3.025V18.933Z" transform="translate(0 0.002)"/><path class="a" d="M22.35.17h3.025V18.688H22.35Z" transform="translate(4.915 0.039)"/><path class="a" d="M31.95,9.467A9.383,9.383,0,0,1,41.417,0a8.791,8.791,0,0,1,6.551,2.684L46.016,4.819a6.231,6.231,0,0,0-4.587-1.952,6.393,6.393,0,0,0-6.392,6.6,6.393,6.393,0,0,0,6.392,6.6,6.257,6.257,0,0,0,4.587-1.952l1.952,2.135a8.791,8.791,0,0,1-6.551,2.684A9.383,9.383,0,0,1,31.95,9.467Z" transform="translate(7.027 0.002)"/><path class="a" d="M52.553,9.979A9.468,9.468,0,1,1,71.462,8.955,9.468,9.468,0,1,1,52.553,9.979Zm15.835-.854a6.393,6.393,0,1,0-12.76.7,6.393,6.393,0,1,0,12.76-.7Z" transform="translate(11.554 0.002)"/><g transform="translate(63.851 22.839)"><path class="a" d="M64.71,22.88l-6.539-4.16L52.34,22.612V24.4L58.2,20.513l6.527,4.148,5.831-3.806V19.062Z" transform="translate(-52.34 -18.72)"/></g><g transform="translate(63.851 24.059)"><path class="a" d="M64.71,23.88l-6.539-4.16L52.34,23.612V25.4L58.2,21.513l6.527,4.148,5.831-3.806V20.062Z" transform="translate(-52.34 -19.72)"/></g></g><g transform="translate(90.531 0.879)"><path class="a" d="M87.422,16.908V14.3l-1.683-3.489-.732-.756,1.342-.671L87.7,8.064l.7-1.354.049-2.257-.659-1.44L86.47,1.672l-1.757-.9L75.088.72l-.866.378V2.282l.659.329,1.586.049V16.908H75.076l-.866.378V18.47l.659.329,5.526.049.878-.39V17.287l-.659-.329-2-.049V10.235h3.867l1.452,1.452L85.287,14.4V17.97a.817.817,0,0,0,.866.866H89.13l.756-.378V17.287l-.659-.329ZM85.055,7.966,84.4,8.3H78.614V2.66H84.4l.659.329.915.915.329.659v1.83l-.329.659Z" transform="translate(-74.21 -0.72)"/><path class="a" d="M102.259,15l-.329.659-.049.427-.146.146-.256-.22-.329-.659V7.666L100.7,6.641,99.8,5.7l-1.757-.9L94.562,4.75l-1.842.866-.952.9-.5.939-.049.61.525,1.159L92.7,9.7l.61.049,1.159-.525.476-.952.049-.61-.317-.781.39-.2h2.245l1.061.537.3.3L99,8.19V9.2l-.293.586-.183.085H94.94l-2.257,1.074-1.354,1.318-.5.939-.049,1.842.464,1.025.9.939,2.171,1.11,3.184.049,1.33-.659.488-.451.2.39.952.476,1.842.049,1.159-.525.476-.952.049-.61-.378-.866h-1.354Zm-3.245-2.745V13.7l-.732,1.476-.72.708-.659.329H94.659L94,15.888l-.72-.708-.329-.659v-.6l.329-.659.72-.708,1.476-.744h2.647Z" transform="translate(-70.566 0.166)"/><path class="a" d="M117.164,16.908V1.586A.751.751,0,0,0,116.884,1,.734.734,0,0,0,116.3.72h-2.867l-.866.378V2.282l.659.329,1.793.049V7.454l-.854-.854-1.354-.7-3.074-.049-1.44.659-1.757,1.72-1.11,2.171L105.38,14.3l1.074,2.257,1.72,1.757,1.354.7,3.184.049,1.33-.659.976-.939v.537l.378.866h3.355l.866-.378v-1.2l-.659-.329Zm-6.9.2-.659-.329-1.537-1.537-.537-1.074V10.711l.537-1.074L109.6,8.1l.659-.329h1.83l.659.329,1.537,1.537.732,1.476v2.647l-.732,1.476-1.537,1.537-.659.329h-1.83Z" transform="translate(-67.355 -0.72)"/><path class="a" d="M126.239,15.95v-10a.751.751,0,0,0-.281-.586.734.734,0,0,0-.586-.281h-3.684l-.866.378V6.642l.659.329,2.611.049v8.918h-2.415l-.866.378V17.5l.659.329,7.283.049.756-.378V16.328L128.849,16Z" transform="translate(-63.962 0.239)"/><path class="a" d="M124.306,4.465l.72.049,1.061-.537.476-.952.049-.61-.525-1.159-.964-.488-.61-.049-1.159.537-.476.952-.049.61.525,1.159Z" transform="translate(-63.517 -0.72)"/><path class="a" d="M143.828,7.836l-1.72-1.757-2.171-1.11-3.074-.049-2.257,1.074-1.757,1.72-1.11,2.171-.049,3.074,1.074,2.257,1.72,1.757,2.171,1.11,3.184.049,2.147-1.074,1.757-1.72,1.11-2.171.049-3.074Zm-6.441,8.344-1.476-.744L134.374,13.9l-.537-1.074V10.19l.537-1.074,1.537-1.537,1.476-.744h1.83l1.476.744,1.537,1.537.537,1.074v2.647l-.537,1.074-1.537,1.537-1.476.744h-1.83Z" transform="translate(-61.569 0.204)"/></g></g></svg>