<svg xmlns="http://www.w3.org/2000/svg" viewBox="0 0 56.688 20.278"><defs><style>.a{fill:#fff;}</style></defs><g transform="translate(-367.687 -615)"><g transform="translate(404.603 615)"><g transform="translate(0 0)"><path class="a" d="M0,3.865Q0-.869,0-5.607c.058-.272.108-.544.172-.813A5.075,5.075,0,0,1,3.65-10.379c.476-.158.976-.238,1.467-.358H14.56c.111.024.221.054.335.075,2.857.52,4.5,2.2,4.713,5.112a67.956,67.956,0,0,1-.005,9.5,5.182,5.182,0,0,1-4.326,4.88A6.665,6.665,0,0,1,13.964,9c-3,0-6,.151-8.988-.078a5.211,5.211,0,0,1-4.746-4C.139,4.575.075,4.218,0,3.865M9.874-8.829c-1.345,0-2.689-.012-4.032,0A3.647,3.647,0,0,0,1.9-4.884Q1.82-.861,1.9,3.158A3.637,3.637,0,0,0,5.764,7.082q4.085.088,8.164,0a3.613,3.613,0,0,0,3.839-3.85q.1-4.113,0-8.233A3.605,3.605,0,0,0,13.9-8.823c-1.344-.018-2.685,0-4.03-.005" transform="translate(0.001 10.737)"/></g><g transform="translate(4.7 4.714)"><path class="a" d="M0,1.353A5.186,5.186,0,0,1,5.186-3.759,5.19,5.19,0,0,1,10.273,1.4,5.193,5.193,0,0,1,5.111,6.542,5.19,5.19,0,0,1,0,1.353m1.928.019A3.234,3.234,0,0,0,5.144,4.608a3.237,3.237,0,0,0,3.2-3.2A3.239,3.239,0,0,0,5.178-1.828a3.233,3.233,0,0,0-3.249,3.2" transform="translate(0 3.759)"/></g><g transform="translate(13.843 3.341)"><path class="a" d="M.325.664A1.251,1.251,0,0,1-.912-.588,1.269,1.269,0,0,1,.334-1.845,1.293,1.293,0,0,1,1.582-.584,1.279,1.279,0,0,1,.325.664" transform="translate(0.912 1.845)"/></g></g><g transform="translate(367.687 615.811)"><path class="a" d="M2.537,1.523H1.1c-.481,0-.875.017-.875-.325S.618.871,1.1.871H2.361A.9.9,0,0,0,3.258,0l.086-3.457a.913.913,0,0,0-.675-.966L1.1-4.629s-.069-.009-1.277-.009A5.529,5.529,0,0,0-4.422-2.961,6.209,6.209,0,0,0-5.542-.378,9.8,9.8,0,0,0-5.7.878c0,.218-.393.395-.875.395h-.276a.879.879,0,0,0-.875.875V6.289a.879.879,0,0,0,.875.875h.276a.877.877,0,0,1,.875.874v5.916a.879.879,0,0,0,.875.875h4.3a.878.878,0,0,0,.875-.875V8.038a.878.878,0,0,1,.875-.874H2.271a.928.928,0,0,0,.915-.874L3.371,2.4a.83.83,0,0,0-.834-.874M1.39,5.017a.31.31,0,0,1-.306.291H-1.208A.293.293,0,0,0-1.5,5.6v7.083a.293.293,0,0,1-.291.292H-3.55a.293.293,0,0,1-.292-.292V5.6a.293.293,0,0,0-.292-.292H-5.576a.293.293,0,0,1-.291-.291v-1.6a.293.293,0,0,1,.291-.292h1.441a.293.293,0,0,0,.291-.292V.774a4.022,4.022,0,0,1,.3-1.738c.129-.242.666-1.82,3.368-1.82.715,0,1.238.043,1.238.043l.351.028c.033,0,.057.137.053.3L1.429-.971c0,.161-.035.291-.07.291H-.059A1.385,1.385,0,0,0-1.466.53c-.019.159-.035.421-.035.582V2.835a.293.293,0,0,0,.292.292h2.4a.277.277,0,0,1,.278.291Z" transform="translate(7.723 4.638)"/></g></g></svg>