<svg xmlns="http://www.w3.org/2000/svg" xmlns:xlink="http://www.w3.org/1999/xlink" viewBox="0 0 139.167 59.891"><defs><style>.a,.c{stroke:#fff;stroke-width:3px;}.b{clip-path:url(#a);}.c{fill:none;stroke-miterlimit:10;}</style><clipPath id="a"><rect class="a" width="139.167" height="59.89"/></clipPath></defs><g transform="translate(-9.9 -82.63)"><g transform="translate(9.9 82.63)"><g class="b"><path class="c" d="M8.96,27.36l23.9-17.33L56.4,27.36,79.339,10.03l23.524,16.463L125.818,10.03l23.537,16.463L172.3,10.03l23.537,16.463" transform="translate(-10.176 -103.92)"/><path class="c" d="M8.96,38.54l23.9-17.33L56.4,38.54,79.339,21.21l23.524,16.45,22.955-16.45,23.537,16.45L172.3,21.21l23.537,16.45" transform="translate(-10.176 -100.642)"/><path class="c" d="M8.96,49.71l23.9-17.33L56.4,49.71,79.339,32.38l23.524,16.463L125.818,32.38l23.537,16.463L172.3,32.38l23.537,16.463" transform="translate(-10.176 -97.366)"/><path class="c" d="M8.96,60.89l23.9-17.33L56.4,60.89,79.339,43.56l23.524,16.45,22.955-16.45,23.537,16.45L172.3,43.56l23.537,16.45" transform="translate(-10.176 -94.087)"/><path class="c" d="M8.96,72.06l23.9-17.33L56.4,72.06,79.339,54.73l23.524,16.463L125.818,54.73l23.537,16.463L172.3,54.73l23.537,16.463" transform="translate(-10.176 -90.812)"/><path class="c" d="M8.96,83.243,32.859,65.9,56.4,83.243,79.339,65.9l23.524,16.463L125.818,65.9l23.537,16.463L172.3,65.9l23.537,16.463" transform="translate(-10.176 -87.536)"/><path class="c" d="M8.96,116.76l23.9-17.33L56.4,116.76,79.339,99.43l23.524,16.463L125.818,99.43l23.537,16.463L172.3,99.43l23.537,16.463" transform="translate(-10.176 -77.703)"/><path class="c" d="M8.96,103.76l23.9-17.33L56.4,103.76,79.339,86.43l23.524,16.463L125.818,86.43l23.537,16.463L172.3,86.43l23.537,16.463" transform="translate(-10.176 -81.516)"/><path class="c" d="M8.96,129.943l23.9-17.343L56.4,129.943,79.339,112.6l23.524,16.463L125.818,112.6l23.537,16.463L172.3,112.6l23.537,16.463" transform="translate(-10.176 -73.841)"/></g></g></g></svg>