<svg xmlns="http://www.w3.org/2000/svg" xmlns:xlink="http://www.w3.org/1999/xlink" viewBox="0 0 47.369 49.387"><defs><style>.a,.e,.g,.i{fill:none;}.a,.b,.e,.f{stroke:#fff;}.b,.e{stroke-width:3px;}.c{clip-path:url(#a);}.d{clip-path:url(#b);}.e{stroke-miterlimit:10;}.f,.j{fill:#fff;}.h,.j{stroke:none;}</style><clipPath id="a"><circle class="a" cx="14.882" cy="14.882" r="14.882"/></clipPath><clipPath id="b"><rect class="b" width="47.741" height="20.545"/></clipPath></defs><g transform="translate(-916 -591)"><g transform="translate(922.193 594)"><g class="c" transform="translate(2.458 11.747)"><g transform="translate(-2.531 -4.323)"><g transform="translate(-7 18.158)"><g transform="translate(0 0)"><g class="d"><path class="e" d="M8.96,15.975l8.2-5.945,8.074,5.945L33.1,10.03l8.07,5.648,7.875-5.648,8.074,5.648,7.87-5.648,8.074,5.648" transform="translate(-9.377 -42.239)"/><path class="e" d="M8.96,27.155l8.2-5.945,8.074,5.945L33.1,21.21l8.07,5.643,7.875-5.643,8.074,5.643,7.87-5.643,8.074,5.643" transform="translate(-9.377 -48.459)"/><path class="e" d="M8.96,38.325l8.2-5.945,8.074,5.945L33.1,32.38l8.07,5.648,7.875-5.648,8.074,5.648,7.87-5.648,8.074,5.648" transform="translate(-9.377 -54.673)"/><path class="e" d="M8.96,49.5l8.2-5.945L25.233,49.5,33.1,43.56l8.07,5.643,7.875-5.643L57.123,49.2l7.87-5.643L73.067,49.2" transform="translate(-9.377 -60.893)"/><path class="e" d="M8.96,60.675l8.2-5.945,8.074,5.945L33.1,54.73l8.07,5.648,7.875-5.648,8.074,5.648,7.87-5.648,8.074,5.648" transform="translate(-9.377 -67.108)"/><path class="e" d="M8.96,71.849l8.2-5.949,8.074,5.949L33.1,65.9l8.07,5.648L49.048,65.9l8.074,5.648,7.87-5.648,8.074,5.648" transform="translate(-9.377 -73.322)"/><path class="e" d="M8.96,105.375l8.2-5.945,8.074,5.945L33.1,99.43l8.07,5.648,7.875-5.648,8.074,5.648,7.87-5.648,8.074,5.648" transform="translate(-9.377 -91.977)"/><path class="e" d="M8.96,92.375l8.2-5.945,8.074,5.945L33.1,86.43l8.07,5.648,7.875-5.648,8.074,5.648,7.87-5.648,8.074,5.648" transform="translate(-9.377 -84.744)"/><path class="e" d="M8.96,118.549l8.2-5.949,8.074,5.949L33.1,112.6l8.07,5.648,7.875-5.648,8.074,5.648,7.87-5.648,8.074,5.648" transform="translate(-9.377 -99.304)"/></g></g></g><g transform="translate(-7 1)"><g transform="translate(0 0)"><g class="d"><path class="e" d="M8.96,15.975l8.2-5.945,8.074,5.945L33.1,10.03l8.07,5.648,7.875-5.648,8.074,5.648,7.87-5.648,8.074,5.648" transform="translate(-9.377 -42.239)"/><path class="e" d="M8.96,27.155l8.2-5.945,8.074,5.945L33.1,21.21l8.07,5.643,7.875-5.643,8.074,5.643,7.87-5.643,8.074,5.643" transform="translate(-9.377 -48.459)"/><path class="e" d="M8.96,38.325l8.2-5.945,8.074,5.945L33.1,32.38l8.07,5.648,7.875-5.648,8.074,5.648,7.87-5.648,8.074,5.648" transform="translate(-9.377 -54.673)"/><path class="e" d="M8.96,49.5l8.2-5.945L25.233,49.5,33.1,43.56l8.07,5.643,7.875-5.643L57.123,49.2l7.87-5.643L73.067,49.2" transform="translate(-9.377 -60.893)"/><path class="e" d="M8.96,60.675l8.2-5.945,8.074,5.945L33.1,54.73l8.07,5.648,7.875-5.648,8.074,5.648,7.87-5.648,8.074,5.648" transform="translate(-9.377 -67.108)"/><path class="e" d="M8.96,71.849l8.2-5.949,8.074,5.949L33.1,65.9l8.07,5.648L49.048,65.9l8.074,5.648,7.87-5.648,8.074,5.648" transform="translate(-9.377 -73.322)"/><path class="e" d="M8.96,105.375l8.2-5.945,8.074,5.945L33.1,99.43l8.07,5.648,7.875-5.648,8.074,5.648,7.87-5.648,8.074,5.648" transform="translate(-9.377 -91.977)"/><path class="e" d="M8.96,92.375l8.2-5.945,8.074,5.945L33.1,86.43l8.07,5.648,7.875-5.648,8.074,5.648,7.87-5.648,8.074,5.648" transform="translate(-9.377 -84.744)"/><path class="e" d="M8.96,118.549l8.2-5.949,8.074,5.949L33.1,112.6l8.07,5.648,7.875-5.648,8.074,5.648,7.87-5.648,8.074,5.648" transform="translate(-9.377 -99.304)"/></g></g></g></g></g><g class="a" transform="translate(0 9.289)"><circle class="h" cx="17.339" cy="17.339" r="17.339"/><circle class="i" cx="17.339" cy="17.339" r="16.839"/></g><g transform="translate(-11.518)"><line class="a" x1="11.392" y1="7.333" transform="translate(18.433 0.167)"/><g class="f" transform="translate(15.307 -3)"><circle class="h" cx="2.858" cy="2.858" r="2.858"/><circle class="i" cx="2.858" cy="2.858" r="2.358"/></g></g><g transform="translate(3)"><line class="a" y1="7.333" x2="11.392" transform="translate(15.307 0.167)"/><g class="f" transform="translate(23.476 -3)"><circle class="h" cx="2.858" cy="2.858" r="2.858"/><circle class="i" cx="2.858" cy="2.858" r="2.358"/></g></g></g><g class="g" transform="translate(916 601.214)"><path class="h" d="M4.584,0h38.2l4.584,39.174H0Z"/><path class="j" d="M 5.473911285400391 1.000003814697266 L 1.123844146728516 38.17352294921875 L 46.24530029296875 38.17352294921875 L 41.89522933959961 1.000003814697266 L 5.473911285400391 1.000003814697266 M 4.584110260009766 3.814697265625e-06 L 42.78503036499023 3.814697265625e-06 L 47.369140625 39.17352294921875 L 0 39.17352294921875 L 4.584110260009766 3.814697265625e-06 Z"/></g></g></svg>