<svg xmlns="http://www.w3.org/2000/svg" viewBox="0 0 129.88 19.529"><defs><style>.a{fill:#fff;}</style></defs><g transform="translate(0 -9.361)"><path class="a" d="M1.94,18.41v7.61H0V13.96L8.14,21.7V14.09h1.95V26.15Z"/><path class="a" d="M21.84,10.05h1.95V21.97H21.84Z"/><path class="a" d="M33.68,20.1a6.048,6.048,0,0,1,6.1-6.1,5.639,5.639,0,0,1,4.21,1.73l-1.26,1.38a4.036,4.036,0,0,0-2.96-1.26,4.113,4.113,0,0,0-4.12,4.25,4.119,4.119,0,0,0,4.12,4.25,4.036,4.036,0,0,0,2.96-1.26l1.26,1.38a5.654,5.654,0,0,1-4.21,1.73A6.054,6.054,0,0,1,33.68,20.1Z"/><path class="a" d="M57.59,15.79A6.094,6.094,0,1,1,64,21.55,6.047,6.047,0,0,1,57.59,15.79Zm10.2-.55a4.118,4.118,0,1,0-8.22.44,4.118,4.118,0,1,0,8.22-.44Z"/><path class="a" d="M81.89,13.71h4.22a3.271,3.271,0,0,1,3.51,3.26,2.657,2.657,0,0,1-1.11,2.32,3.011,3.011,0,0,1,1.91,2.92c0,2.08-1.66,3.43-3.96,3.43H81.89V13.71Zm3.97,5.02a1.59,1.59,0,0,0,1.8-1.61,1.611,1.611,0,0,0-1.8-1.61H83.85v3.23h2.01Zm.6,5.08c1.34,0,2-.72,2-1.7s-.66-1.73-2-1.73H83.84v3.43Z"/><path class="a" d="M105.2,9.74l5.83,12.06h-2.1l-1.24-2.65H102.7l-1.24,2.65H99.38Zm-1.89,7.63h3.31l-1.64-3.53Z"/><path class="a" d="M123.97,19.6h-1.13v5.07h-1.95V12.75h3.86a3.483,3.483,0,0,1,3.79,3.43,3.32,3.32,0,0,1-2.45,3.24l3.79,5.26h-2.33Zm.61-1.69c1.34,0,2-.65,2-1.66s-.65-1.7-2-1.7h-1.73v3.36Z"/><path class="a" d="M64.15,27.12l-6.49-4.13-5.77,3.86v1.78l5.79-3.86,6.48,4.12,5.78-3.78V23.33Z"/></g></svg>